<svg xmlns="http://www.w3.org/2000/svg" width="144.083" height="144" id="dribbble"><path d="M72.041 11.166c-33.543 0-60.833 27.29-60.833 60.834s27.29 60.834 60.833 60.834c33.544 0 60.835-27.29 60.835-60.834s-27.292-60.834-60.835-60.834zm0 115.668c-30.235 0-54.833-24.599-54.833-54.834s24.598-54.834 54.833-54.834S126.876 41.765 126.876 72s-24.6 54.834-54.835 54.834z"></path><path d="M71.792 38.001c-18.748 0-34 15.252-34 33.999 0 18.748 15.252 34 34 34 18.748 0 34-15.252 34-34 0-18.747-15.252-33.999-34-33.999zM93.987 54.96a27.842 27.842 0 0 1 5.787 16.362c-7.096-1.102-13.393-.943-18.914.038a122.719 122.719 0 0 0-2.854-6.202c5.696-2.417 11.256-5.708 15.981-10.198zm-4.151-4.345c-4.258 4.038-9.369 7.001-14.643 9.175-4.041-7.297-7.887-12.616-9.751-15.055a27.925 27.925 0 0 1 6.349-.734c6.872 0 13.168 2.492 18.045 6.614zm-29.291-4.249-.881.726c.093.113 4.691 5.782 9.755 14.769-10.441 3.228-20.521 3.798-24.913 3.875 1.996-8.69 8.041-15.846 16.039-19.37zM43.792 72c0-.083.005-.165.006-.248 4.443-.007 16.25-.454 28.51-4.464a119.847 119.847 0 0 1 2.597 5.527C61.491 76.97 53.601 85.778 50.423 90.064 46.291 85.185 43.792 78.88 43.792 72zM54.78 94.219c2.225-3.282 9.248-12.109 22.371-15.906 2.275 6.059 4.125 12.681 5.006 19.574l.434-.056A27.83 27.83 0 0 1 71.792 100a27.855 27.855 0 0 1-17.012-5.781zm33.013.737c-.98-6.317-2.66-12.35-4.689-17.922 4.738-.685 10.117-.7 16.174.286-1.404 7.269-5.627 13.541-11.485 17.636z"></path></svg>